<svg id="Layer_1" data-name="Layer 1" xmlns="http://www.w3.org/2000/svg" viewBox="0 0 1018.68 155.38"><title>logo_dark_horizontal_097s7oa</title><path d="M159.62,48.71a21.91,21.91,0,0,1-8.3-8.3,23.16,23.16,0,0,1-3-11.7,23.36,23.36,0,0,1,3-11.7,21.91,21.91,0,0,1,8.3-8.3,22.57,22.57,0,0,1,11.4-3,25.07,25.07,0,0,1,9.1,1.7,18.59,18.59,0,0,1,7,4.8l-3.7,3.7a14.72,14.72,0,0,0-5.4-4,18.3,18.3,0,0,0-7-1.4,17.24,17.24,0,0,0-8.6,2.2A16.83,16.83,0,0,0,156,19a18.32,18.32,0,0,0-2.4,9.4,17.91,17.91,0,0,0,2.4,9.4,17.16,17.16,0,0,0,15,8.5,18.05,18.05,0,0,0,7.4-1.4,15.94,15.94,0,0,0,5.2-3.7,12.44,12.44,0,0,0,2.6-4.2,17.9,17.9,0,0,0,1.2-5.3h-16.2v-4.8h21.1a19.15,19.15,0,0,1,.3,3.2,23.59,23.59,0,0,1-1.3,7.9,17.14,17.14,0,0,1-4.1,6.7c-4.1,4.4-9.5,6.6-16.1,6.6A19.07,19.07,0,0,1,159.62,48.71Z" transform="translate(-0.24 -0.13)" fill="#656c73"/><path d="M204,49.61a15.66,15.66,0,0,1-5.6-5.8,17.51,17.51,0,0,1-2-8.3,17.86,17.86,0,0,1,2-8.3,14.22,14.22,0,0,1,5.6-5.8,16.48,16.48,0,0,1,16.1,0,14.87,14.87,0,0,1,5.6,5.8,17.51,17.51,0,0,1,2,8.3,17.86,17.86,0,0,1-2,8.3,14.22,14.22,0,0,1-5.6,5.8A16.48,16.48,0,0,1,204,49.61Zm13.2-4a9.83,9.83,0,0,0,3.8-4,11.82,11.82,0,0,0,1.4-6,12.76,12.76,0,0,0-1.4-6,10.07,10.07,0,0,0-9-5.4,10.29,10.29,0,0,0-5.1,1.4,9.83,9.83,0,0,0-3.8,4,11.82,11.82,0,0,0-1.4,6,12.76,12.76,0,0,0,1.4,6,10.51,10.51,0,0,0,3.8,4A10.16,10.16,0,0,0,217.22,45.61Z" transform="translate(-0.24 -0.13)" fill="#656c73"/><path d="M238.82,49.61a15.66,15.66,0,0,1-5.6-5.8,17.51,17.51,0,0,1-2-8.3,17.86,17.86,0,0,1,2-8.3,14.22,14.22,0,0,1,5.6-5.8,16.48,16.48,0,0,1,16.1,0,14.87,14.87,0,0,1,5.6,5.8,17.51,17.51,0,0,1,2,8.3,17.86,17.86,0,0,1-2,8.3,14.22,14.22,0,0,1-5.6,5.8A16.48,16.48,0,0,1,238.82,49.61Zm13.2-4a9.83,9.83,0,0,0,3.8-4,11.82,11.82,0,0,0,1.4-6,12.76,12.76,0,0,0-1.4-6,10.07,10.07,0,0,0-9-5.4,10.29,10.29,0,0,0-5.1,1.4,9.83,9.83,0,0,0-3.8,4,11.82,11.82,0,0,0-1.4,6,12.76,12.76,0,0,0,1.4,6,10.51,10.51,0,0,0,3.8,4A10.16,10.16,0,0,0,252,45.61Z" transform="translate(-0.24 -0.13)" fill="#656c73"/><path d="M272.22,62.31a13.42,13.42,0,0,1-4.7-6.1l4.8-2a8.48,8.48,0,0,0,3.3,4.4,9.56,9.56,0,0,0,5.6,1.7c3.2,0,5.7-.9,7.5-2.8a11.39,11.39,0,0,0,2.6-7.9v-3.3h-.2a12.17,12.17,0,0,1-4.2,3.9,12.82,12.82,0,0,1-6.3,1.5,13.23,13.23,0,0,1-7.2-2.1,15,15,0,0,1-5.3-5.8,18.2,18.2,0,0,1,0-16.6,15,15,0,0,1,5.3-5.8,13.66,13.66,0,0,1,13.5-.6,10.58,10.58,0,0,1,4.2,3.9h.2v-4.4h5v29.2a17,17,0,0,1-2,8.5,12.33,12.33,0,0,1-5.4,5.2,17.38,17.38,0,0,1-7.7,1.7A13.56,13.56,0,0,1,272.22,62.31Zm14.1-16.7a10.32,10.32,0,0,0,3.7-4,13.16,13.16,0,0,0,1.4-6.1,13.16,13.16,0,0,0-1.4-6.1,9.72,9.72,0,0,0-13.7-4,11,11,0,0,0-3.7,4,13.16,13.16,0,0,0-1.4,6.1,13.16,13.16,0,0,0,1.4,6.1,9.72,9.72,0,0,0,13.7,4Z" transform="translate(-0.24 -0.13)" fill="#656c73"/><path d="M308.52,6.81h-5.2v43.9h5.2Z" transform="translate(-0.24 -0.13)" fill="#656c73"/><path d="M320.82,49.61a14.37,14.37,0,0,1-5.4-5.8,17.51,17.51,0,0,1-2-8.3,18.16,18.16,0,0,1,1.8-8.1,14.82,14.82,0,0,1,5.2-5.9,13.89,13.89,0,0,1,7.8-2.2,15.55,15.55,0,0,1,7.8,2,13.26,13.26,0,0,1,5.1,5.6,18.46,18.46,0,0,1,1.8,8.3,3.47,3.47,0,0,1-.1,1.2h-24.2a10.73,10.73,0,0,0,1.7,5.8,9,9,0,0,0,3.8,3.5,10.08,10.08,0,0,0,4.8,1.2c3.8,0,6.8-1.9,8.9-5.6l4.6,2.2a15.4,15.4,0,0,1-5.4,5.9,14.9,14.9,0,0,1-8.3,2.2A14.32,14.32,0,0,1,320.82,49.61Zm16.7-17.5a10.33,10.33,0,0,0-1-3.7,7.41,7.41,0,0,0-3-3.1,9.4,9.4,0,0,0-5.2-1.3,8.71,8.71,0,0,0-6,2.2,10.07,10.07,0,0,0-3.2,5.9Z" transform="translate(-0.24 -0.13)" fill="#656c73"/><path d="M363,6.81h13.3a23.66,23.66,0,0,1,11.8,2.8,18.68,18.68,0,0,1,7.7,7.8,23.43,23.43,0,0,1,2.7,11.4,23.43,23.43,0,0,1-2.7,11.4,19.91,19.91,0,0,1-7.7,7.8,23.66,23.66,0,0,1-11.8,2.8H363Zm13.3,39q7.8,0,12.3-4.5c3-3,4.5-7.2,4.5-12.5s-1.5-9.5-4.5-12.5-7.1-4.5-12.3-4.5h-8.1v34Z" transform="translate(-0.24 -0.13)" fill="#656c73"/><path d="M410.32,49.61a14.37,14.37,0,0,1-5.4-5.8,17.51,17.51,0,0,1-2-8.3,18.16,18.16,0,0,1,1.8-8.1,14.82,14.82,0,0,1,5.2-5.9,13.89,13.89,0,0,1,7.8-2.2,15.55,15.55,0,0,1,7.8,2,13.26,13.26,0,0,1,5.1,5.6,18.46,18.46,0,0,1,1.8,8.3,3.47,3.47,0,0,1-.1,1.2h-24.2a10.73,10.73,0,0,0,1.7,5.8,9,9,0,0,0,3.8,3.5,10.08,10.08,0,0,0,4.8,1.2c3.8,0,6.8-1.9,8.9-5.6l4.6,2.2a15.4,15.4,0,0,1-5.4,5.9,14.9,14.9,0,0,1-8.3,2.2A13.89,13.89,0,0,1,410.32,49.61ZM427,32.11a10.33,10.33,0,0,0-1-3.7,7.41,7.41,0,0,0-3-3.1,9.4,9.4,0,0,0-5.2-1.3,8.71,8.71,0,0,0-6,2.2,10.07,10.07,0,0,0-3.2,5.9Z" transform="translate(-0.24 -0.13)" fill="#656c73"/><path d="M433.72,20.31h5.7l9.3,24.3h.1l9.5-24.3h5.5l-12.5,30.4H446Z" transform="translate(-0.24 -0.13)" fill="#656c73"/><path d="M473.32,49.61a14.37,14.37,0,0,1-5.4-5.8,17.51,17.51,0,0,1-2-8.3,18.16,18.16,0,0,1,1.8-8.1,14.82,14.82,0,0,1,5.2-5.9,13.89,13.89,0,0,1,7.8-2.2,15.55,15.55,0,0,1,7.8,2,13.26,13.26,0,0,1,5.1,5.6,18.46,18.46,0,0,1,1.8,8.3,3.47,3.47,0,0,1-.1,1.2h-24.2a10.73,10.73,0,0,0,1.7,5.8,9,9,0,0,0,3.8,3.5,10.08,10.08,0,0,0,4.8,1.2c3.8,0,6.8-1.9,8.9-5.6l4.6,2.2a15.4,15.4,0,0,1-5.4,5.9,14.9,14.9,0,0,1-8.3,2.2A14.15,14.15,0,0,1,473.32,49.61ZM490,32.11a10.33,10.33,0,0,0-1-3.7,7.41,7.41,0,0,0-3-3.1,9.4,9.4,0,0,0-5.2-1.3,8.71,8.71,0,0,0-6,2.2,10.07,10.07,0,0,0-3.2,5.9Z" transform="translate(-0.24 -0.13)" fill="#656c73"/><path d="M506,6.81h-5.2v43.9H506Z" transform="translate(-0.24 -0.13)" fill="#656c73"/><path d="M518.52,49.61a15.66,15.66,0,0,1-5.6-5.8,17.51,17.51,0,0,1-2-8.3,17.86,17.86,0,0,1,2-8.3,14.22,14.22,0,0,1,5.6-5.8,15.4,15.4,0,0,1,8-2.1,15.75,15.75,0,0,1,8.1,2.1,14.87,14.87,0,0,1,5.6,5.8,17.51,17.51,0,0,1,2,8.3,17.86,17.86,0,0,1-2,8.3,14.22,14.22,0,0,1-5.6,5.8,15.75,15.75,0,0,1-8.1,2.1A15.4,15.4,0,0,1,518.52,49.61Zm13.2-4a9.83,9.83,0,0,0,3.8-4,11.82,11.82,0,0,0,1.4-6,12.76,12.76,0,0,0-1.4-6,10.07,10.07,0,0,0-9-5.4,10.29,10.29,0,0,0-5.1,1.4,9.83,9.83,0,0,0-3.8,4,11.82,11.82,0,0,0-1.4,6,12.76,12.76,0,0,0,1.4,6,10.51,10.51,0,0,0,3.8,4A10.16,10.16,0,0,0,531.72,45.61Z" transform="translate(-0.24 -0.13)" fill="#656c73"/><path d="M546.92,20.31h5v4.5h.2a11.32,11.32,0,0,1,4.2-3.9,13.49,13.49,0,0,1,13.6.5,15,15,0,0,1,5.3,5.8,18.2,18.2,0,0,1,0,16.6,15,15,0,0,1-5.3,5.8,13.23,13.23,0,0,1-7.2,2.1,12.17,12.17,0,0,1-6.4-1.6,10.18,10.18,0,0,1-4.2-4h-.2l.2,4.2v13.6h-5.2ZM567,45.61a10.25,10.25,0,0,0,3.7-4,13,13,0,0,0,1.4-6,12.76,12.76,0,0,0-1.4-6,9.58,9.58,0,0,0-3.7-4,9.73,9.73,0,0,0-13.34,3.33c-.13.22-.25.44-.36.67a13.16,13.16,0,0,0-1.4,6.1,13.41,13.41,0,0,0,1.4,6.1,9,9,0,0,0,3.7,4,9.7,9.7,0,0,0,5,1.4A10.22,10.22,0,0,0,567,45.61Z" transform="translate(-0.24 -0.13)" fill="#656c73"/><path d="M589.42,49.61a14.37,14.37,0,0,1-5.4-5.8,17.51,17.51,0,0,1-2-8.3,18.16,18.16,0,0,1,1.8-8.1,14.82,14.82,0,0,1,5.2-5.9,13.89,13.89,0,0,1,7.8-2.2,15.55,15.55,0,0,1,7.8,2,13.26,13.26,0,0,1,5.1,5.6,18.46,18.46,0,0,1,1.8,8.3,3.47,3.47,0,0,1-.1,1.2h-24.2a10.73,10.73,0,0,0,1.7,5.8,9,9,0,0,0,3.8,3.5,10,10,0,0,0,4.8,1.2c3.8,0,6.8-1.9,8.9-5.6l4.6,2.2a15.4,15.4,0,0,1-5.4,5.9,14.9,14.9,0,0,1-8.3,2.2A14.15,14.15,0,0,1,589.42,49.61Zm16.7-17.5a10.33,10.33,0,0,0-1-3.7,7.41,7.41,0,0,0-3-3.1,9.4,9.4,0,0,0-5.2-1.3,8.3,8.3,0,0,0-5.9,2.2,10.07,10.07,0,0,0-3.2,5.9Z" transform="translate(-0.24 -0.13)" fill="#656c73"/><path d="M616.92,20.31h5v5h.2a7.91,7.91,0,0,1,3.5-4.2,10.33,10.33,0,0,1,5.3-1.7,10.51,10.51,0,0,1,3.6.6v5.6a8.77,8.77,0,0,0-4.3-.9,6.62,6.62,0,0,0-4,1.3,9.58,9.58,0,0,0-4.1,8V51h-5.2Z" transform="translate(-0.24 -0.13)" fill="#656c73"/><path d="M657.32,50.31a16.61,16.61,0,0,1-5.5-4,15.47,15.47,0,0,1-3.4-6.5l5-2a12.42,12.42,0,0,0,3.9,6.4,9.53,9.53,0,0,0,6.6,2.5,10.17,10.17,0,0,0,6.5-2.1A6.59,6.59,0,0,0,673,39a6.68,6.68,0,0,0-2.2-5.1,21.35,21.35,0,0,0-7.3-3.7l-2.8-1a22.45,22.45,0,0,1-7.6-4.4c-2-1.8-2.9-4.3-2.9-7.5a10.93,10.93,0,0,1,1.7-5.8,11.79,11.79,0,0,1,4.8-4.3,14,14,0,0,1,6.8-1.6,15.77,15.77,0,0,1,6.7,1.4,13.31,13.31,0,0,1,4.5,3.4,12.88,12.88,0,0,1,2.3,4l-4.8,2.1a8.65,8.65,0,0,0-2.8-4.1,8.49,8.49,0,0,0-5.7-1.8,9,9,0,0,0-5.8,1.9,6,6,0,0,0-2.4,4.8,5.32,5.32,0,0,0,2,4.2,19.08,19.08,0,0,0,6.1,3l2.8,1a22.79,22.79,0,0,1,8.7,5.1,11,11,0,0,1,3.2,8.3,11.18,11.18,0,0,1-2.2,7.1,13.31,13.31,0,0,1-5.5,4.2,18.17,18.17,0,0,1-6.9,1.4A13.22,13.22,0,0,1,657.32,50.31Z" transform="translate(-0.24 -0.13)" fill="#656c73"/><path d="M691,51.11a9.4,9.4,0,0,1-2.7-1.7,7.49,7.49,0,0,1-1.8-2.8,10.69,10.69,0,0,1-.6-3.8V25h-5.4v-4.7h5.4v-9.1h5.2v9.1h7.5V25h-7.5v16.6a5.86,5.86,0,0,0,1,3.9,3.86,3.86,0,0,0,3.2,1.4,5.83,5.83,0,0,0,3.3-.9v5a17.69,17.69,0,0,1-1.9.5,14.85,14.85,0,0,1-2.4.2A8.85,8.85,0,0,1,691,51.11Z" transform="translate(-0.24 -0.13)" fill="#656c73"/><path d="M706.72,48.51c-1.9-2.2-2.9-5.2-2.9-9V20.41H709v18.3q0,8.4,7.5,8.4a7.78,7.78,0,0,0,4.5-1.4,9.35,9.35,0,0,0,3.1-3.7,11.24,11.24,0,0,0,1.1-4.8V20.41h5.2v30.4h-4.9v-4.5h-.2a10.32,10.32,0,0,1-4.1,3.9,11.14,11.14,0,0,1-5.9,1.6C711.52,51.71,708.62,50.61,706.72,48.51Z" transform="translate(-0.24 -0.13)" fill="#656c73"/><path d="M742.62,49.61a15,15,0,0,1-5.3-5.8,18.2,18.2,0,0,1,0-16.6,15,15,0,0,1,5.3-5.8,13.23,13.23,0,0,1,7.2-2.1,12.45,12.45,0,0,1,6.4,1.6,10,10,0,0,1,4.2,3.9h.2l-.2-4.2V6.81h5.2v43.9h-4.9v-4.5h-.2a11.59,11.59,0,0,1-4.2,4,13.61,13.61,0,0,1-6.4,1.6A14.21,14.21,0,0,1,742.62,49.61Zm13-4a10.25,10.25,0,0,0,3.7-4,13.41,13.41,0,0,0,1.4-6.1,13.16,13.16,0,0,0-1.4-6.1,9.72,9.72,0,0,0-13.7-4,10.25,10.25,0,0,0-3.7,4,13,13,0,0,0-1.4,6,12.76,12.76,0,0,0,1.4,6,9.58,9.58,0,0,0,3.7,4,9.7,9.7,0,0,0,5,1.4A8,8,0,0,0,755.62,45.61Z" transform="translate(-0.24 -0.13)" fill="#656c73"/><path d="M778,49.61a14.37,14.37,0,0,1-5.4-5.8,17.51,17.51,0,0,1-2-8.3,18.16,18.16,0,0,1,1.8-8.1,14.82,14.82,0,0,1,5.2-5.9,13.89,13.89,0,0,1,7.8-2.2,15.55,15.55,0,0,1,7.8,2,13.26,13.26,0,0,1,5.1,5.6,18.46,18.46,0,0,1,1.8,8.3,3.47,3.47,0,0,1-.1,1.2h-24.2a10.73,10.73,0,0,0,1.7,5.8,9,9,0,0,0,3.8,3.5,10.08,10.08,0,0,0,4.8,1.2c3.8,0,6.8-1.9,8.9-5.6l4.6,2.2a15.4,15.4,0,0,1-5.4,5.9,14.9,14.9,0,0,1-8.3,2.2A14.15,14.15,0,0,1,778,49.61Zm16.7-17.5a10.33,10.33,0,0,0-1-3.7,7.41,7.41,0,0,0-3-3.1,9.4,9.4,0,0,0-5.2-1.3,8.3,8.3,0,0,0-5.9,2.2,10.07,10.07,0,0,0-3.2,5.9Z" transform="translate(-0.24 -0.13)" fill="#656c73"/><path d="M805.52,20.31h5v4.5h.2a9.7,9.7,0,0,1,4.1-3.9,11.14,11.14,0,0,1,5.9-1.6c3.7,0,6.6,1.1,8.5,3.3s2.9,5.1,2.9,8.9v19.3h-5.2V32.31c0-5.5-2.6-8.2-7.7-8.2a7.62,7.62,0,0,0-4.4,1.4,9.09,9.09,0,0,0-3,3.7,11.24,11.24,0,0,0-1.1,4.8v16.8h-5.2Z" transform="translate(-0.24 -0.13)" fill="#656c73"/><path d="M845.62,51.11a9.4,9.4,0,0,1-2.7-1.7,7.49,7.49,0,0,1-1.8-2.8,10.69,10.69,0,0,1-.6-3.8V25h-5.4v-4.7h5.4v-9.1h5.2v9.1h7.5V25h-7.5v16.6a5.86,5.86,0,0,0,1,3.9,3.86,3.86,0,0,0,3.2,1.4,5.81,5.81,0,0,0,3.3-.9v5a17.69,17.69,0,0,1-1.9.5,14.85,14.85,0,0,1-2.4.2A9.54,9.54,0,0,1,845.62,51.11Z" transform="translate(-0.24 -0.13)" fill="#656c73"/><path d="M881.12,48.71a21.79,21.79,0,0,1-8.2-8.3,23.16,23.16,0,0,1-3-11.7,23.36,23.36,0,0,1,3-11.7,21.79,21.79,0,0,1,8.2-8.3,22.73,22.73,0,0,1,11.5-3,21.15,21.15,0,0,1,9.1,1.9,19.2,19.2,0,0,1,7,5.3l-3.7,3.6a15.1,15.1,0,0,0-5.5-4.4,16.71,16.71,0,0,0-6.9-1.4,17.43,17.43,0,0,0-8.7,2.2,16.83,16.83,0,0,0-6.4,6.3,18.32,18.32,0,0,0-2.4,9.4,17.91,17.91,0,0,0,2.4,9.4,16.83,16.83,0,0,0,6.4,6.3,17.64,17.64,0,0,0,8.7,2.2,17.06,17.06,0,0,0,13.6-6.6l3.7,3.7a21.42,21.42,0,0,1-7.5,5.7,23.15,23.15,0,0,1-9.9,2.1A19.87,19.87,0,0,1,881.12,48.71Z" transform="translate(-0.24 -0.13)" fill="#656c73"/><path d="M920.32,6.81h-5.2v43.9h5.2Z" transform="translate(-0.24 -0.13)" fill="#656c73"/><path d="M930,48.51c-1.9-2.2-2.9-5.2-2.9-9V20.41h5.2v18.3q0,8.4,7.5,8.4a7.78,7.78,0,0,0,4.5-1.4,9.35,9.35,0,0,0,3.1-3.7,11.24,11.24,0,0,0,1.1-4.8V20.41h5.2v30.4h-4.9v-4.5h-.2a10.32,10.32,0,0,1-4.1,3.9,11.14,11.14,0,0,1-5.9,1.6C934.82,51.71,932,50.61,930,48.51Z" transform="translate(-0.24 -0.13)" fill="#656c73"/><path d="M970.12,50.21a10.18,10.18,0,0,1-4.2-4h-.2v4.5h-5V6.81h5.2v13.8l-.2,4.2h.2a11.32,11.32,0,0,1,4.2-3.9,13.49,13.49,0,0,1,13.6.5,15,15,0,0,1,5.3,5.8,18.2,18.2,0,0,1,0,16.6,15,15,0,0,1-5.3,5.8,13.23,13.23,0,0,1-7.2,2.1A13.46,13.46,0,0,1,970.12,50.21Zm10.7-4.6a10.25,10.25,0,0,0,3.7-4,13,13,0,0,0,1.4-6,12.76,12.76,0,0,0-1.4-6,9.58,9.58,0,0,0-3.7-4,9.73,9.73,0,0,0-13.34,3.33c-.13.22-.25.44-.36.67a13.16,13.16,0,0,0-1.4,6.1,13.41,13.41,0,0,0,1.4,6.1,9,9,0,0,0,3.7,4,9.7,9.7,0,0,0,5,1.4A12.82,12.82,0,0,0,980.82,45.61Z" transform="translate(-0.24 -0.13)" fill="#656c73"/><path d="M998.52,49.31a13.36,13.36,0,0,1-4.7-6.1l4.6-2a9.7,9.7,0,0,0,3.5,4.4,8.56,8.56,0,0,0,4.9,1.5,8.32,8.32,0,0,0,4.9-1.3,3.72,3.72,0,0,0,1.9-3.1,3.58,3.58,0,0,0-1.4-2.9,12,12,0,0,0-4.9-2l-4.2-1a13.68,13.68,0,0,1-5.9-2.9,6.9,6.9,0,0,1-2.4-5.5,7.15,7.15,0,0,1,1.6-4.8,9.8,9.8,0,0,1,4.3-3.1,16.27,16.27,0,0,1,5.9-1,14.23,14.23,0,0,1,7.1,1.8,10.38,10.38,0,0,1,4.6,5.1l-4.6,2a6.48,6.48,0,0,0-3-3.3,9.2,9.2,0,0,0-4.4-1,8,8,0,0,0-4.3,1.2,3.44,3.44,0,0,0-1.9,3,2.75,2.75,0,0,0,1.3,2.5,13,13,0,0,0,4,1.7l4.5,1.1c3,.8,5.3,1.9,6.8,3.5a7.54,7.54,0,0,1,2.2,5.5,8,8,0,0,1-1.5,4.8,10.53,10.53,0,0,1-4.3,3.4,15.3,15.3,0,0,1-6.3,1.2A16.71,16.71,0,0,1,998.52,49.31Z" transform="translate(-0.24 -0.13)" fill="#656c73"/><path d="M28.82,29.41,48.52,18a9.66,9.66,0,0,0-9.7-16.7l-34,19.6Z" transform="translate(-0.24 -0.13)" fill="#ea4335"/><path d="M43.62,58.61a9.65,9.65,0,0,0,4.9-18L14.52,21a9.66,9.66,0,0,0-9.7,16.7l34,19.6A9.3,9.3,0,0,0,43.62,58.61Z" transform="translate(-0.24 -0.13)" fill="#4285f4"/><path d="M77.42,58.61a9.3,9.3,0,0,0,4.8-1.3l34-19.6L92.52,29l-20,11.5a9.73,9.73,0,0,0,4.9,18.1Z" transform="translate(-0.24 -0.13)" fill="#fbbc04"/><path d="M111.42,39a9.65,9.65,0,0,0,4.9-18l-34-19.6a9.66,9.66,0,0,0-9.7,16.7l34,19.6A9.3,9.3,0,0,0,111.42,39Z" transform="translate(-0.24 -0.13)" fill="#34a853"/><path d="M519.42,113.56V97.85l-11.8-21.34h5.48l5.21,10.24c1.41,2.81,2.55,5.06,3.68,7.65h.11c1-2.44,2.29-4.86,3.72-7.68l5.35-10.21h5.42l-12.4,21.28v15.79Z" transform="translate(-0.24 -0.13)" fill="#656c73"/><path d="M539.22,101.14c.1,6.53,4.25,9.23,9.11,9.23a17.86,17.86,0,0,0,7.36-1.36l.85,3.43a21.44,21.44,0,0,1-8.87,1.7c-8.18,0-13.09-5.45-13.09-13.43s4.75-14.35,12.51-14.35c8.68,0,11,7.61,11,12.51a11.52,11.52,0,0,1-.17,2.27Zm14.2-3.48c0-3-1.25-7.83-6.67-7.83-4.94,0-7,4.46-7.43,7.83Z" transform="translate(-0.24 -0.13)" fill="#656c73"/><path d="M564.07,94.15c0-2.78-.09-5-.22-7.18h4.21l.25,4.28h.11a9.19,9.19,0,0,1,8.39-4.89,7.81,7.81,0,0,1,7.5,5.33h.11a10.62,10.62,0,0,1,3-3.46,9,9,0,0,1,5.85-1.87c3.55,0,8.78,2.29,8.78,11.54v15.66h-4.72v-15c0-5.15-1.9-8.2-5.77-8.2a6.32,6.32,0,0,0-5.76,4.35,8,8,0,0,0-.39,2.43v16.46h-4.73v-16c0-4.24-1.87-7.28-5.52-7.28-3,0-5.23,2.4-6,4.82a7.75,7.75,0,0,0-.37,2.39v16h-4.72Z" transform="translate(-0.24 -0.13)" fill="#656c73"/><path d="M612.65,101.14c.09,6.53,4.24,9.23,9.1,9.23a17.91,17.91,0,0,0,7.37-1.36l.84,3.43a21.28,21.28,0,0,1-8.87,1.7c-8.17,0-13.09-5.45-13.09-13.43s4.75-14.35,12.52-14.35c8.67,0,10.94,7.61,10.94,12.51a11.51,11.51,0,0,1-.16,2.27Zm14.15-3.48c0-3-1.24-7.83-6.67-7.83-4.93,0-7,4.46-7.42,7.83Z" transform="translate(-0.24 -0.13)" fill="#656c73"/><path d="M637.5,94.15c0-2.78-.09-5-.22-7.18h4.27l.27,4.37H642a9.81,9.81,0,0,1,8.8-5c3.65,0,9.37,2.2,9.37,11.33v15.87h-4.81V98.23c0-4.3-1.62-7.9-6.15-7.9a7,7,0,0,0-6.52,5,7.74,7.74,0,0,0-.33,2.24v16H637.5Z" transform="translate(-0.24 -0.13)" fill="#656c73"/><rect x="735.18" y="154.38" width="3" height="1" fill="#656c73"/></svg>